<svg width="330" height="331" viewBox="0 0 330 331" fill="none" xmlns="http://www.w3.org/2000/svg">
    <ellipse cx="155.918" cy="172.726" rx="155.918" ry="172.726"
        transform="matrix(-0.714616 -0.699517 -0.699517 0.714616 397.492 151.135)" fill="#F8FAFD" />
    <g clip-path="url(#clip0_0_1)">
        <path
            d="M159.378 161.072L159.17 159.826C158.943 158.474 159.5 157.111 160.608 156.304C161.716 155.497 162.269 154.113 162.043 152.761C161.705 150.742 159.788 149.344 157.768 149.682L157.564 149.716C156.247 149.936 155.072 150.671 154.297 151.757L153.865 152.363M159.298 163.621L160.284 163.456"
            stroke="black" />
    </g>
    <g clip-path="url(#clip1_0_1)">
        <path
            d="M158.378 114.072L158.17 112.826C157.943 111.474 158.5 110.111 159.608 109.304C160.716 108.497 161.269 107.113 161.043 105.761C160.705 103.742 158.788 102.344 156.768 102.682L156.564 102.716C155.247 102.936 154.072 103.671 153.297 104.757L152.865 105.363M158.298 116.621L159.284 116.456"
            stroke="black" />
    </g>
    <g clip-path="url(#clip2_0_1)">
        <path
            d="M219.949 159.68L220.015 158.418C220.087 157.05 220.926 155.839 222.182 155.292C223.439 154.744 224.279 153.513 224.351 152.144C224.458 150.099 222.89 148.319 220.844 148.211L220.638 148.201C219.305 148.13 217.998 148.593 217.006 149.486L216.454 149.983M219.318 162.151L220.317 162.203"
            stroke="black" />
    </g>
    <g clip-path="url(#clip3_0_1)">
        <path
            d="M188.648 115.378L188.714 114.115C188.786 112.747 189.625 111.536 190.882 110.989C192.138 110.441 192.978 109.21 193.05 107.841C193.158 105.796 191.589 104.016 189.544 103.909L189.337 103.898C188.004 103.828 186.698 104.29 185.705 105.183L185.153 105.68M188.017 117.848L189.016 117.9"
            stroke="black" />
    </g>
    <g clip-path="url(#clip4_0_1)">
        <path
            d="M211.648 207.378L211.714 206.115C211.786 204.747 212.625 203.536 213.882 202.989C215.138 202.441 215.978 201.21 216.05 199.841C216.158 197.796 214.589 196.016 212.544 195.909L212.337 195.898C211.004 195.828 209.698 196.29 208.705 197.183L208.153 197.68M211.017 209.848L212.016 209.9"
            stroke="black" />
    </g>
    <g clip-path="url(#clip5_0_1)">
        <path
            d="M170.648 206.378L170.714 205.115C170.786 203.747 171.625 202.536 172.882 201.989C174.138 201.441 174.978 200.21 175.05 198.841C175.158 196.796 173.589 195.016 171.544 194.909L171.337 194.898C170.004 194.828 168.698 195.29 167.705 196.183L167.153 196.68M170.017 208.848L171.016 208.9"
            stroke="black" />
    </g>
    <path
        d="M239.517 220.299H239.917V219.899V86.0925V85.6925H239.517H138.642H138.242V86.0925V219.899V220.299H138.642H239.517ZM259.838 258.549H118.322V69.2887H259.838V258.549Z"
        fill="white" stroke="black" stroke-width="0.8" />
    <path d="M240.039 86.3339V220.386H139.041" stroke="black" stroke-miterlimit="10" />
    <path d="M260.238 258.949V68.8887" stroke="black" stroke-miterlimit="10" />
    <path d="M57 259.445L303.422 259.445" stroke="black" stroke-miterlimit="10" />
    <path d="M138.123 127.651L240.958 127.651" stroke="black" stroke-miterlimit="10" />
    <path d="M189.539 173.56H240.956" stroke="black" stroke-miterlimit="10" />
    <path d="M139.041 173.56H190.458" stroke="black" stroke-miterlimit="10" />
    <path
        d="M84.0808 80.8606C85.957 80.8606 87.4779 79.3397 87.4779 77.4635C87.4779 75.5873 85.957 74.0663 84.0808 74.0663C82.2046 74.0663 80.6836 75.5873 80.6836 77.4635C80.6836 79.3397 82.2046 80.8606 84.0808 80.8606Z"
        fill="#0048FF" />
    <path d="M84.082 24.8171V67.7511" stroke="black" stroke-miterlimit="10" />
    <path d="M84.0815 58.3328L65.8184 76.596H102.345L84.0815 58.3328Z" fill="#EDEEEF" />
    <path d="M65.8184 76.596H102.345L84.0815 58.3328" stroke="black" stroke-miterlimit="10" />
    <defs>
        <clipPath id="clip0_0_1">
            <rect width="15" height="15" fill="white"
                transform="translate(150 150.475) rotate(-9.49931)" />
        </clipPath>
        <clipPath id="clip1_0_1">
            <rect width="15" height="15" fill="white"
                transform="translate(149 103.475) rotate(-9.49931)" />
        </clipPath>
        <clipPath id="clip2_0_1">
            <rect width="15" height="15" fill="white"
                transform="translate(213.09 147.303) rotate(3.01209)" />
        </clipPath>
        <clipPath id="clip3_0_1">
            <rect width="15" height="15" fill="white"
                transform="translate(181.789 103) rotate(3.01209)" />
        </clipPath>
        <clipPath id="clip4_0_1">
            <rect width="15" height="15" fill="white"
                transform="translate(204.789 195) rotate(3.01209)" />
        </clipPath>
        <clipPath id="clip5_0_1">
            <rect width="15" height="15" fill="white"
                transform="translate(163.789 194) rotate(3.01209)" />
        </clipPath>
    </defs>
</svg>