<svg width="88" height="88" viewBox="0 0 88 88" fill="none" xmlns="http://www.w3.org/2000/svg">
    <g clip-path="url(#clip0_822_9856)">
        <path
            d="M43.9989 60.3086C41.5387 60.3086 39.4764 62.3708 39.4764 64.831C39.4764 67.2912 41.5387 69.3535 43.9989 69.3535C46.3686 69.3535 48.5213 67.2912 48.4128 64.9396C48.5213 62.3527 46.4772 60.3086 43.9989 60.3086Z"
            fill="#1557FF" />
        <path
            d="M85.8586 76.3354C88.6987 71.4331 88.7167 65.5901 85.8947 60.7058L57.5662 11.6464C54.7623 6.70789 49.6971 3.77734 44.0169 3.77734C38.3368 3.77734 33.2716 6.72597 30.4677 11.6283L2.10296 60.742C-0.719043 65.6805 -0.700953 71.5597 2.15723 76.462C4.97923 81.3101 10.0263 84.2225 15.6703 84.2225H72.2551C77.9172 84.2225 83.0004 81.2739 85.8586 76.3354ZM79.708 72.7898C78.1342 75.5033 75.3484 77.1132 72.237 77.1132H15.6522C12.5769 77.1132 9.8092 75.5394 8.27157 72.8802C6.71585 70.1849 6.69776 66.9649 8.25348 64.2514L36.6182 15.1558C38.1559 12.4604 40.9055 10.8685 44.0169 10.8685C47.1103 10.8685 49.878 12.4785 51.4157 15.1739L79.7623 64.2695C81.2819 66.9106 81.2638 70.0944 79.708 72.7898Z"
            fill="#1557FF" />
        <path
            d="M42.8773 28.5613C40.7246 29.1763 39.386 31.13 39.386 33.4998C39.4945 34.9289 39.585 36.376 39.6935 37.8051C40.001 43.2502 40.3086 48.5866 40.6161 54.0317C40.7246 55.8768 42.1537 57.2155 43.9989 57.2155C45.844 57.2155 47.2912 55.7864 47.3817 53.9231C47.3817 52.8015 47.3817 51.7704 47.4902 50.6308C47.6892 47.1395 47.9063 43.6481 48.1052 40.1568C48.2138 37.8956 48.4128 35.6344 48.5213 33.3731C48.5213 32.5591 48.4128 31.8355 48.1052 31.1119C47.1827 29.0859 45.03 28.0548 42.8773 28.5613Z"
            fill="#1557FF" />
    </g>
    <defs>
        <clipPath id="clip0_822_9856">
            <rect width="88" height="88" fill="white" />
        </clipPath>
    </defs>
</svg>